<svg width="24" height="24" viewBox="0 0 24 24" fill="none" xmlns="http://www.w3.org/2000/svg">
<path d="M20.7778 12C20.7778 16.9919 16.8268 21 12 21C7.17324 21 3.22223 16.9919 3.22223 12C3.22223 7.00813 7.17324 3 12 3C16.8268 3 20.7778 7.00813 20.7778 12Z" stroke="white" stroke-width="2"/>
<path fill-rule="evenodd" clip-rule="evenodd" d="M2.61229 14.2898C1.18628 16.3912 0.624844 18.2844 1.25851 19.4958C2.56185 21.9874 8.42755 20.6513 14.3599 16.5115C20.2923 12.3717 24.0448 6.99589 22.7415 4.50427C21.9836 3.05535 19.6828 2.90082 16.7233 3.83932C17.048 4.43471 17.2665 5.07047 17.3843 5.72797C17.7273 5.62067 18.0569 5.53121 18.3709 5.45968C19.4056 5.22398 20.1444 5.21255 20.5974 5.30055C20.8125 5.34235 20.9169 5.39759 20.9538 5.42171C20.9623 5.42722 20.9676 5.43133 20.9705 5.43381C20.9728 5.43872 20.9776 5.45058 20.9828 5.47224C20.9897 5.50062 20.9977 5.54818 20.9996 5.61931C21.0035 5.766 20.9808 5.99071 20.8921 6.3026C20.7116 6.93784 20.3051 7.76948 19.6241 8.74504C18.2681 10.6877 16.0297 12.9074 13.2154 14.8713C10.3946 16.8397 7.68083 18.073 5.62914 18.5403C4.59436 18.776 3.85562 18.7875 3.40261 18.6995C3.18745 18.6577 3.08311 18.6024 3.04618 18.5783C3.03775 18.5728 3.03243 18.5687 3.02947 18.5662C3.0272 18.5613 3.02237 18.5494 3.01716 18.5278C3.01033 18.4994 3.00233 18.4518 3.00042 18.3807C2.99649 18.234 3.01921 18.0093 3.10785 17.6974C3.27935 17.094 3.65471 16.3134 4.27553 15.4006C3.66485 15.1151 3.10401 14.7442 2.61229 14.2898Z" fill="white"/>
</svg>
